<svg xmlns="http://www.w3.org/2000/svg" width="24" height="24" viewBox="0 0 24 24">
    <path fill-opacity=".7" d="M9.057 13.044l-2.409.57L7 8.5l-2.568 3.877-2.794-1.809 1.06 3.427L0 14.376l2.987 1.809-1.06 2.57 3.276-1.808L9 20l-2.16-4.957 2.217-2zM4 20v-1l-2 1h2zM4 4H2v5.5l2 1V4zm19.124 7.044c-.29-1.332-.771-2.475-2.313-2.665-1.445-.19-2.89-.38-4.143-.571-1.252-.19-2.312-.286-4.624.952C9.73 9.997 8.77 10.524 8 11c-.064 0-.064.333 0 1l3 .5-2.5 3c.385.571.596.81.5 1l9 1.5v-1c.193-1.428 1.651-2.69 3-2.5 1.445.19 2.509 1.97 2.316 3.398 0 .19-.096.381-.192.572h.096l.77-.857c.097.19-.577-5.236-.866-6.569zm-4.722.857L9.828 10.76c.674-.38 1.637-.762 2.986-1.523 1.927-1.047 2.89-.952 3.95-.762.579.095 1.253.19 2.024.286l-.386 3.141zm.386.095l.482-3.236c.385.095.963.095 1.348.19 1.253.19 1.446.952 1.735 2.094.096.286.192.857.289 1.428l-3.854-.476zm2.409 3.427c-1.253-.19-2.41.762-2.602 2-.193 1.237.675 2.475 2.023 2.57 1.35.095 2.41-.762 2.602-2 .096-1.237-.77-2.38-2.023-2.57z"/>
</svg>
