<svg xmlns="http://www.w3.org/2000/svg" viewBox="-17378 -16980 40 40" width="40" height="40">
  <g transform="translate(-17418 -17094)">
    <rect fill="none" width="40" height="40" transform="translate(39.999 114)"/>
    <path fill="none" stroke="#0081BA" stroke-width="2" fill-rule="evenodd" d="M2554.862,143.941c-1.029.037-1.863.037-2.445.028v.451a2.69,2.69,0,0,1,1.214,2.249v8.2a2.69,2.69,0,0,1-2.69,2.69h-2.518a2.69,2.69,0,0,1-2.69-2.69v-.329h-15.8v.329a2.691,2.691,0,0,1-2.69,2.69h-2.521a2.69,2.69,0,0,1-2.69-2.69v-8.2a2.684,2.684,0,0,1,1.218-2.249v-.413c-.582.009-1.412.009-2.431-.029-2.051-.075-2.011-1.471-1.52-2.717.484-1.23,2.1-1.5,5.377-1.509.827-2.247,1.785-4.8,2.219-5.736.834-1.811,6.382-3.019,11.244-3.019s10.027,1.057,10.938,3.32c.448,1.115,1.265,3.4,1.98,5.435,3.245.008,4.849.284,5.33,1.495C2556.876,142.483,2556.92,143.867,2554.862,143.941Zm-6.439-3.024c-.657-2.32-.791-2.993-1.54-5.253-.5-.766-2.67-2.484-8.746-2.484s-8.776,1.674-9.388,2.484c-.821,2.361-1.157,3.639-1.728,5.6-.165,1.068.4,1.509,3.517,1.509h14.306c2.271,0,4.133.332,3.579-1.854Z" transform="translate(-2477.851 -10.109)"/>
    <path data-name="Shape 2" fill="#0081BA" fill-rule="evenodd" d="M2595.936,181.594a5.971,5.971,0,0,0,4.769-2.37.98.98,0,0,0-.8-1.58c-.88-.063-.384-.006-3.273,0h-.3C2593.086,177.645,2593.35,181.462,2595.936,181.594Z" transform="translate(-2528.743 -42.529)"/>
    <path data-name="Shape 2" fill="#0081BA" fill-rule="evenodd" d="M2598.92,181.594a5.972,5.972,0,0,1-4.769-2.369.98.98,0,0,1,.8-1.58c.879-.063.383-.006,3.273,0h.3c3.247,0,2.983,3.818.4,3.949Z" transform="translate(-2545.834 -42.529)"/>
  </g>
</svg>
