<svg width="40" height="19" viewBox="0 0 40 19" fill="none" xmlns="http://www.w3.org/2000/svg">
<path fill-rule="evenodd" clip-rule="evenodd" d="M37.1016 15.9806L37.0109 16.0493C36.6519 16.3613 36.1828 16.4585 35.7473 16.6117C35.6912 16.6342 35.6192 16.6576 35.6009 16.723C35.7247 16.8187 35.8989 16.7966 36.0467 16.8164C36.1876 16.8326 36.3259 16.8294 36.462 16.7903C36.6307 16.8231 36.7109 16.654 36.82 16.5615C37.5721 16.0889 38.0477 15.2973 38.4543 14.5254C38.0314 15.0348 37.5945 15.5387 37.1016 15.9806ZM38.4259 4.63669C38.0192 3.8924 37.5595 3.12182 36.8245 2.66623C36.7147 2.58605 36.6496 2.41186 36.4896 2.43526C36.2143 2.37407 35.9208 2.39759 35.6478 2.46513C35.5524 2.49783 35.647 2.5775 35.7023 2.59341C36.1487 2.75999 36.6372 2.84991 37.0086 3.17194L37.1151 3.25237C37.5956 3.69815 38.0394 4.18481 38.4485 4.69826C38.4614 4.71014 38.4315 4.65204 38.4259 4.63669ZM30.5647 7.97167C30.5504 7.48854 30.312 7.05187 30.1181 6.62206C30.1392 6.76097 30.2049 6.88749 30.2401 7.02232C30.2519 7.05313 30.2335 7.11042 30.1998 7.07841C30.0709 6.70381 29.9734 6.3116 29.7915 5.95876C29.7186 5.7425 29.5975 5.5365 29.5832 5.30565C29.4467 4.94074 29.3078 4.57639 29.1583 4.21675C29.1213 4.155 29.2126 4.15601 29.2202 4.20921C29.3573 4.57513 29.5032 4.93797 29.638 5.30471C29.6536 5.3603 29.7353 5.29062 29.7455 5.35181C29.8415 5.60108 29.9794 5.83891 30.0274 6.10264C30.1665 6.40329 30.2912 6.71255 30.4411 7.00672C30.3474 6.27928 30.1514 5.56429 29.9149 4.87062C29.7254 4.30297 29.4321 3.71859 28.8917 3.42046C28.5388 3.28425 28.1457 3.34085 27.7819 3.39744C26.0052 3.68589 24.2559 4.12419 22.4812 4.41974C22.4714 4.42559 22.4709 4.43578 22.4798 4.45043C22.5108 4.54262 22.5281 4.6387 22.5411 4.73473C22.9805 6.74751 23.0744 8.82438 22.989 10.8787C22.9374 12.0903 22.8067 13.3013 22.541 14.4849C22.5305 14.5808 22.5119 14.676 22.4806 14.7673C22.4612 14.8451 22.5901 14.817 22.6373 14.8353C24.4411 15.1408 26.2184 15.5926 28.0273 15.8685C28.3589 15.877 28.7325 15.9392 29.0187 15.7268C29.4276 15.4274 29.7223 14.9779 29.836 14.4805C30.1318 13.2448 30.1893 11.9598 30.0883 10.6959C30.0659 10.6909 30.0564 10.6998 30.0597 10.7228C30.0415 11.4325 29.987 12.1411 29.9309 12.8488C29.9341 12.8858 29.905 12.9514 29.8707 12.9013C30.0543 11.1309 30.0596 9.35518 29.9849 7.57966C29.9952 7.53444 30.0533 7.58393 30.0432 7.6165C30.0585 8.36312 30.0805 9.10987 30.0745 9.85699C30.0592 9.92912 30.1744 9.87787 30.1626 9.9527C30.1837 10.2278 30.2711 10.508 30.2226 10.7798C30.2864 11.5301 30.3229 12.2841 30.2759 13.0364C30.4993 12.2407 30.569 11.3948 30.5971 10.5666C30.5899 9.70161 30.6342 8.83456 30.5647 7.97167ZM18.6497 2.66025C18.6146 2.65994 18.5738 2.66069 18.5566 2.69717C18.2849 3.12622 18.0231 3.56572 17.8332 4.03879C17.7932 4.10973 17.8834 4.1462 17.9393 4.14664C19.5749 4.11388 21.2127 4.00106 22.8294 3.73871C23.762 3.58817 24.6924 3.41832 25.6155 3.21885C25.7031 3.04844 25.7912 2.87249 25.8633 2.6949C23.4595 2.65233 21.0542 2.65956 18.6497 2.66025ZM19.0142 2.00548C19.3101 1.99932 19.6075 2.01989 19.9026 1.99355C19.6231 1.87285 19.2937 1.88086 19.0142 2.00548ZM17.8342 15.1933C18.0353 15.6714 18.2932 16.1273 18.5823 16.5553C19.0122 16.5649 19.4433 16.5554 19.8736 16.5598C21.8704 16.5544 23.8682 16.5744 25.864 16.5249C25.7935 16.3487 25.7016 16.1784 25.6196 16.0074C24.5664 15.7769 23.5025 15.5859 22.4359 15.4242C20.9687 15.2032 19.4857 15.1167 18.0043 15.0734C17.9339 15.0689 17.7794 15.0876 17.8342 15.1933ZM16.567 15.2706C16.5442 15.1577 16.4691 15.0452 16.3436 15.0432C14.1696 15.0387 11.914 14.9579 9.85402 15.7784C9.68792 15.8557 9.4743 15.9095 9.38814 16.0885C9.41663 16.2532 9.58957 16.3592 9.7515 16.3306C11.7915 16.4383 13.8329 16.5139 15.8759 16.5325C16.2436 16.5467 16.6124 16.5488 16.9799 16.54C16.8279 16.1224 16.6839 15.7004 16.567 15.2706ZM9.57091 2.90556C9.48867 2.95398 9.39237 3.03951 9.38982 3.14226C9.47585 3.30783 9.67206 3.36323 9.83013 3.43536C11.1992 3.98673 12.6874 4.14111 14.1495 4.17431C14.8639 4.1794 15.5785 4.18072 16.293 4.18336C16.4092 4.19059 16.5284 4.12406 16.5506 4.00175C16.675 3.55465 16.8245 3.11484 16.9792 2.67843C14.5084 2.69044 12.0374 2.76395 9.57091 2.90556ZM4.72965 9.55477C4.72697 10.5286 4.78483 11.5027 4.89257 12.4703C5.01145 13.3546 5.20971 14.2539 5.65642 15.0327C5.81362 15.3374 6.18811 15.3376 6.48148 15.3061C7.83886 15.1701 9.16594 14.8257 10.5179 14.6467C10.5525 14.636 10.632 14.6514 10.6116 14.5924C10.5921 14.4954 10.5726 14.3971 10.5754 14.2975C10.3767 12.7564 10.313 11.1993 10.3028 9.64646C10.3032 8.13008 10.3863 6.42542 10.5752 4.92174C10.572 4.82056 10.5975 4.72196 10.6088 4.62191C10.624 4.58293 10.5725 4.59028 10.5494 4.58161C9.5153 4.44301 8.49515 4.21883 7.4658 4.05087C7.0388 3.97358 6.60683 3.91208 6.1725 3.90938C5.91595 3.8929 5.6953 4.0642 5.59484 4.29385C4.93033 5.58391 4.82831 7.06841 4.75702 8.49493C4.73954 8.84796 4.73058 9.20137 4.72965 9.55477ZM2.84388 3.12962C2.08383 4.02741 1.68078 5.18957 1.57111 6.35506C1.84103 5.68082 2.06828 4.9884 2.36681 4.32598C2.4032 4.2675 2.37956 4.30555 2.42982 4.22889C2.78006 3.48051 3.44058 2.95323 4.10981 2.51103C3.66191 2.65057 3.20394 2.81916 2.84388 3.12962ZM1.90038 14.4026C2.09285 15.0429 2.45465 15.6177 2.87175 16.1312C3.22939 16.401 3.64649 16.5798 4.07448 16.7025C4.14446 16.7252 4.05656 16.6735 4.03504 16.6576C3.38018 16.2425 2.76774 15.7078 2.42597 14.9932C2.40165 14.9476 2.40165 14.9476 2.36936 14.9031C2.06616 14.2382 1.83792 13.5424 1.56931 12.8633C1.59824 13.3898 1.74561 13.9017 1.90038 14.4026ZM19.3581 17.2852C19.5487 17.2816 19.7518 17.3115 19.9302 17.1966C19.6333 17.182 19.3349 17.1839 19.0381 17.1954C19.1346 17.2731 19.2499 17.2775 19.3581 17.2852ZM39.8097 7.94771C39.8295 8.91021 39.8316 9.87334 39.8178 10.8362C39.7877 11.8045 39.8175 12.8027 39.4915 13.7286C39.4759 13.7599 39.5167 13.7796 39.5119 13.8094C39.1767 14.959 38.5717 16.1192 37.5099 16.734C36.9892 17.0562 36.3953 17.2276 35.8008 17.3463C35.6487 17.3695 35.5275 17.4864 35.3715 17.4945C34.7227 17.571 34.0681 17.5525 33.4161 17.5567C32.2187 17.5555 31.0215 17.5598 29.8241 17.5547C29.2677 17.5449 28.6852 17.554 28.1829 17.2746C27.6809 17.1815 27.1626 17.2468 26.6542 17.2354C26.5182 17.5879 26.419 17.9731 26.2167 18.3009C26.0414 18.5536 25.7071 18.6275 25.4188 18.6078C25.5264 18.1462 25.6776 17.695 25.7926 17.235C24.0719 17.2235 22.3503 17.2348 20.6293 17.2293C20.5108 17.2097 20.4361 17.331 20.3197 17.3333C19.7597 17.4238 19.188 17.4054 18.6229 17.3851C18.5085 17.3668 18.3453 17.374 18.3116 17.2331C17.0027 17.2249 15.6928 17.2363 14.3835 17.2238C13.6207 17.2097 12.8818 17.4342 12.1293 17.5246C11.6186 17.5678 11.1057 17.5555 10.5938 17.5574C9.4241 17.5589 8.25447 17.5574 7.08484 17.5581C6.64073 17.5537 6.19359 17.5758 5.75372 17.5003C4.93282 17.2973 4.05955 17.3546 3.26372 17.0386C2.47866 16.7555 1.97073 16.0196 1.68259 15.2621C1.28085 14.2599 1.09224 13.1859 0.962532 12.1171C0.758926 10.2061 0.777527 8.26635 1.06331 6.36468C1.22219 5.39281 1.43961 4.41578 1.87935 3.53C2.15058 2.97228 2.58653 2.4738 3.16264 2.23145C3.86956 1.92118 4.65326 1.92332 5.40205 1.8017C5.8278 1.69033 6.26811 1.66631 6.70599 1.66795C8.35761 1.66707 10.0093 1.6587 11.661 1.67587C12.6075 1.68354 13.5186 2.03399 14.4677 2.00117C15.7469 1.99054 17.028 1.99796 18.3061 1.98815C18.3576 1.83987 18.5449 1.84937 18.6782 1.83478C19.2241 1.82327 19.7761 1.79912 20.317 1.88911C20.4341 1.8915 20.5104 2.01242 20.629 1.99324C22.3501 1.99004 24.0714 1.99413 25.7923 1.99111C25.6807 1.52859 25.5255 1.07558 25.4181 0.612127C25.7166 0.599676 26.0717 0.674885 26.2369 0.953398C26.4191 1.27719 26.529 1.63569 26.6466 1.98658C26.9425 2.00475 27.2409 1.97721 27.537 2.00079C27.8011 1.97878 28.0839 2.02645 28.3259 1.88823C28.6819 1.69826 29.0926 1.69348 29.4852 1.67518C30.9545 1.65399 32.4239 1.6692 33.8933 1.66575C34.401 1.67952 34.9116 1.66141 35.4156 1.73561C35.5559 1.75561 35.6665 1.86131 35.808 1.87817C36.475 2.00953 37.1408 2.21818 37.7032 2.61466C38.6466 3.24338 39.1803 4.31649 39.5033 5.37948C39.5341 5.42626 39.468 5.46405 39.4962 5.51027C39.7749 6.28978 39.7809 7.12947 39.8097 7.94771Z" fill="#C20C15"/>
</svg>
