<?xml version="1.0" encoding="UTF-8"?>
<svg width="60px" height="24px" viewBox="0 0 60 24" version="1.1" xmlns="http://www.w3.org/2000/svg" xmlns:xlink="http://www.w3.org/1999/xlink">
    <!-- Generator: sketchtool 51 (57462) - http://www.bohemiancoding.com/sketch -->
    <title>539CCDF5-E6EB-4E98-947C-F5252288988C</title>
    <desc>Created with sketchtool.</desc>
    <defs></defs>
    <g id="Symbols" stroke="none" stroke-width="1" fill="none" fill-rule="evenodd">
        <g id="Car-Type-Icon/CarTypeIcon_Sedan" fill="#3D3D3D" fill-rule="nonzero">
            <path d="M49.2855999,13.6936 C46.8111999,13.6936 44.8047999,15.6994 44.8047999,18.1744 C44.8047999,18.3652 44.8203999,18.553 44.8443999,18.7372 C45.1221999,20.9458 47.0019999,22.654 49.2849999,22.654 C51.6297999,22.654 53.5521999,20.8516 53.7471999,18.556 C53.7573999,18.4306 53.7657999,18.3028 53.7657999,18.1738 C53.7663999,15.6994 51.7605999,13.6936 49.2855999,13.6936 Z M47.0427999,16.486 L47.9559999,17.3998 C47.8851999,17.5216 47.8293999,17.653 47.7933999,17.7934 L46.5057999,17.7934 C46.5717999,17.3062 46.7583999,16.861 47.0427999,16.486 Z M46.4997999,18.5692 L47.7975999,18.5692 C47.8341999,18.7072 47.8881999,18.838 47.9601999,18.958 L47.0445999,19.873 C46.7607999,19.501 46.5699999,19.0558 46.4997999,18.5692 Z M48.8979999,20.9578 C48.4125999,20.89 47.9715999,20.6998 47.5983999,20.4184 L48.5091999,19.507 C48.6291999,19.5772 48.7605999,19.6288 48.8979999,19.6648 L48.8979999,20.9578 Z M48.8979999,16.684 C48.7569999,16.7212 48.6249999,16.7764 48.5019999,16.849 L47.5893999,15.9364 C47.9643999,15.6514 48.4095999,15.463 48.8979999,15.3952 L48.8979999,16.684 Z M49.6737999,15.394 C50.1621999,15.4618 50.6079999,15.6514 50.9823999,15.9358 L50.0703999,16.8484 C49.9479999,16.7758 49.8147999,16.7206 49.6743999,16.6834 L49.6737999,15.394 Z M49.6737999,20.9566 L49.6737999,19.6654 C49.8117999,19.6288 49.9419999,19.5778 50.0619999,19.507 L50.9733999,20.4184 C50.6001999,20.6998 50.1585999,20.8888 49.6737999,20.9566 Z M51.5289999,19.8772 L50.6103999,18.9574 C50.6823999,18.8368 50.7405999,18.7078 50.7771999,18.5698 L52.0647999,18.5698 C51.9963999,19.0546 51.8133999,19.5034 51.5289999,19.8772 Z M50.7789999,17.7934 C50.7423999,17.653 50.6871999,17.5216 50.6163999,17.3998 L51.5307999,16.486 C51.8133999,16.861 51.9999999,17.3062 52.0671999,17.794 L50.7789999,17.794 L50.7789999,17.7934 Z" id="Shape" transform="translate(49.285300, 18.173800) scale(-1, 1) translate(-49.285300, -18.173800) "></path>
            <path d="M12.0801995,13.6936 C9.60579946,13.6936 7.59939946,15.6994 7.59939946,18.1744 C7.59939946,18.3652 7.61499946,18.553 7.63899946,18.7372 C7.91679946,20.9458 9.79659946,22.654 12.0789995,22.654 C14.4237995,22.654 16.3461995,20.8516 16.5417995,18.556 C16.5519995,18.4306 16.5603995,18.3028 16.5603995,18.1738 C16.5615995,15.6994 14.5551995,13.6936 12.0801995,13.6936 Z M9.83739946,16.486 L10.7499995,17.3998 C10.6791995,17.5216 10.6233995,17.653 10.5873995,17.7934 L9.29979946,17.7934 C9.36639946,17.3062 9.55299946,16.861 9.83739946,16.486 Z M9.29499946,18.5692 L10.5927995,18.5692 C10.6293995,18.7072 10.6833995,18.838 10.7553995,18.958 L9.84039946,19.873 C9.55539946,19.501 9.36399946,19.0558 9.29499946,18.5692 Z M11.6925995,20.9578 C11.2071995,20.89 10.7661995,20.6998 10.3929995,20.4184 L11.3037995,19.507 C11.4237995,19.5772 11.5551995,19.6288 11.6925995,19.6648 L11.6925995,20.9578 Z M11.6925995,16.684 C11.5515995,16.7212 11.4195995,16.7764 11.2965995,16.849 L10.3839995,15.9364 C10.7589995,15.6514 11.2035995,15.463 11.6925995,15.3952 L11.6925995,16.684 Z M12.4689995,15.394 C12.9573995,15.4618 13.4031995,15.6514 13.7775995,15.9358 L12.8649995,16.8484 C12.7425995,16.7758 12.6093995,16.7194 12.4689995,16.6834 L12.4689995,15.394 Z M12.4689995,20.9566 L12.4689995,19.6654 C12.6069995,19.6288 12.7371995,19.5778 12.8571995,19.507 L13.7685995,20.4184 C13.3953995,20.6998 12.9531995,20.8888 12.4689995,20.9566 Z M14.3235995,19.8772 L13.4049995,18.9586 C13.4769995,18.8374 13.5357995,18.709 13.5717995,18.5704 L14.8593995,18.5704 C14.7909995,19.0546 14.6085995,19.5034 14.3235995,19.8772 Z M13.5735995,17.7934 C13.5369995,17.653 13.4823995,17.5216 13.4109995,17.3998 L14.3247995,16.486 C14.6079995,16.861 14.7939995,17.3062 14.8617995,17.794 L13.5735995,17.794 L13.5735995,17.7934 Z" id="Shape" transform="translate(12.079900, 18.173800) scale(-1, 1) translate(-12.079900, -18.173800) "></path>
            <path d="M58.6003485,11.374 L58.6003485,8.0584 C58.6003485,7.525 58.2127485,7.0732 57.6859485,6.991 C56.4217485,6.793 54.1807485,6.4192 53.1739485,6.109 C51.7303485,5.6638 46.1527485,3.3022 44.2213485,2.8588 C42.2893485,2.4154 33.5785485,0.0478 25.2355485,2.9398 C23.8237485,3.4288 17.4727485,6.4648 13.7383485,8.0434 C12.6385485,8.0674 1.75274855,10.3366 1.17314855,11.8918 C0.593548547,13.4476 0.411748547,14.2024 0.304948547,14.5972 C0.198148547,14.992 0.304948547,16.8814 1.11374855,18.1972 C1.93814855,18.6634 3.52514855,18.9766 5.35994855,19.1866 C5.33894855,19.0744 5.31614855,18.964 5.30174855,18.8506 C5.26994855,18.6082 5.25494855,18.3868 5.25494855,18.1756 C5.25494855,15.2086 7.66814855,12.7942 10.6357485,12.7942 C13.6033485,12.7942 16.0165485,15.208 16.0165485,18.1756 C16.0165485,18.328 16.0063485,18.4792 15.9949485,18.628 C15.9667485,18.961 15.9067485,19.2844 15.8197485,19.5958 C15.8239485,19.5958 15.8341485,19.5958 15.8341485,19.5958 L42.5437485,19.0582 C42.5317485,18.9892 42.5161485,18.9208 42.5071485,18.8506 C42.4753485,18.6094 42.4603485,18.3874 42.4603485,18.1756 C42.4603485,15.2086 44.8735485,12.7948 47.8411485,12.7948 C50.8087485,12.7948 53.2225485,15.208 53.2225485,18.1756 C53.2225485,18.187 53.2213485,18.1966 53.2207485,18.2074 L53.3347485,18.1978 L57.9013485,17.338 C57.9013485,17.338 59.6503485,16.4068 59.6503485,13.8448 C59.6509485,12.136 58.6003485,11.374 58.6003485,11.374 Z M46.076338,10.9270235 C46.0833311,10.9235418 46.0870682,10.9214947 46.0875086,10.9210631 C46.0873136,10.9212542 46.0835901,10.923241 46.076338,10.9270235 Z M44.9723958,10.0795797 C44.6711602,9.62565522 44.4201867,9.10525904 44.2256689,8.49577009 C43.6444143,6.67450561 43.2705515,5.35282152 43.1025198,4.52086167 C43.047851,4.25018487 43.2229601,3.98644012 43.4936369,3.9317713 C43.7643137,3.87710247 44.0280584,4.05221153 44.0827273,4.32288833 C44.2416951,5.10997121 44.6074156,6.40287045 45.1783282,8.19172991 C45.3445289,8.71249238 45.55515,9.1492174 45.8056139,9.52663528 C46.0383499,9.87733935 46.1378854,9.98785974 46.6078068,10.4642691 C47.0511396,10.9137229 47.2036335,11.2272869 46.7875393,11.6351758 C46.6527118,11.7673446 46.4703566,11.8589628 46.171985,11.9690761 C45.1300967,12.3535825 44.6182092,12.582009 43.9438943,13.0388791 C42.4887092,14.0248139 41.5657574,15.4486031 41.3556953,17.5192156 L41.3112822,17.9570012 L40.8714019,17.968577 C36.1131469,18.0937942 33.4275473,18.15625 32.7957485,18.15625 C32.5196062,18.15625 32.2957485,17.9323924 32.2957485,17.65625 C32.2957485,17.3801076 32.5196062,17.15625 32.7957485,17.15625 C33.3950504,17.15625 35.9408479,17.0974715 40.4159633,16.9801929 C40.7409024,14.8303699 41.7985076,13.2845363 43.3829821,12.2110038 C44.1334836,11.7025147 44.6953241,11.4493706 45.7793394,11.0480821 C45.3583118,10.6187827 45.2309259,10.4691523 44.9723958,10.0795797 Z M28.5457485,17.25 C30.0866567,17.25 30.9281356,16.2436644 31.5156926,13.4032821 L33.6498646,3.08621511 C33.7058027,2.81579776 33.9703661,2.64192798 34.2407834,2.69786609 C34.5112008,2.75380419 34.6850706,3.01836755 34.6291325,3.28878489 L32.4949604,13.6058519 C31.8224063,16.8571296 30.6577141,18.25 28.5457485,18.25 L17.3134187,18.25 L17.2813084,17.784401 C17.1240196,15.5037142 16.2261276,13.9634568 14.7462571,12.9428564 L14.4937359,12.7687039 L14.5345744,12.4646837 C14.5440224,12.3943489 14.5522768,12.3221712 14.5593685,12.2482539 C14.6064536,11.757479 14.6011435,11.2424069 14.5625376,10.6776162 C14.5599166,10.6392724 14.5301235,10.257848 14.5301235,10.203125 C14.5301235,9.76792733 14.8948884,9.54997656 18.5527731,7.51613192 C18.7941178,7.38194031 19.09855,7.46880498 19.2327416,7.71014959 C19.3669332,7.95149421 19.2800686,8.25592647 19.038724,8.39011808 C17.787669,9.08572537 16.8502382,9.61991834 16.2279915,9.99171718 C15.9219044,10.1746074 15.6939563,10.3171144 15.5467708,10.4172738 C15.5517578,10.4932855 15.5574655,10.5692762 15.5602095,10.6094209 C15.6010265,11.2065573 15.6076831,11.7565911 15.5591995,12.296361 C17.0401494,13.411598 17.9823728,15.0281654 18.2364329,17.25 L28.5457485,17.25 Z M31.7332485,8.2306 C25.7419146,8.4342 22.2671188,8.536 21.3088611,8.536 C20.1783688,7.77205082 19.5358058,7.54292752 20.6662981,6.706 C24.1593242,4.12003825 28.2753077,2.87963825 33.0142485,2.9848 L31.7332485,8.2306 Z M43.0769985,7.75 L34.5144985,8.0794 L35.3382985,2.9854 C40.0362985,2.9242 42.1925985,3.937 42.1925985,3.937 L43.0769985,7.75 Z M48.4243485,7.7428 L45.8917485,7.7428 L45.0769985,5 C46.3445464,5.58019962 47.2139297,5.99286629 47.6851485,6.238 C48.2347485,6.5236 48.5347485,7.1338 48.4243485,7.7428 Z" id="Shape" transform="translate(29.960374, 10.560819) scale(-1, 1) translate(-29.960374, -10.560819) "></path>
        </g>
    </g>
</svg>