<?xml version="1.0" encoding="UTF-8"?>
<svg width="60px" height="24px" viewBox="0 0 60 24" version="1.1" xmlns="http://www.w3.org/2000/svg" xmlns:xlink="http://www.w3.org/1999/xlink">
    <!-- Generator: sketchtool 51.1 (57501) - http://www.bohemiancoding.com/sketch -->
    <title>B68D2ECD-7ED6-4BE6-B045-FC2B90A7F16D</title>
    <desc>Created with sketchtool.</desc>
    <defs>
        <path d="M44.3621762,16.8243285 C44.0341564,17.2331406 43.8103615,17.7291868 43.7310604,18.2721901 L45.1456898,18.2721901 C45.1914924,18.1081793 45.2622598,17.9545954 45.3536394,17.8157917 L44.3621762,16.8243285 Z M45.0515966,16.1946086 L46.0704245,17.2134365 C46.1369151,17.1846757 46.2056982,17.1602094 46.2764243,17.1403869 L46.2764243,15.7255592 C45.8286465,15.7911685 45.41284,15.9550505 45.0515966,16.1946086 Z M49.2333436,20.3763555 C49.3526225,20.1960762 49.4531304,20.0022777 49.5320972,19.7977883 C49.5666714,19.7077298 49.597519,19.6154975 49.6238119,19.5211949 C49.6489662,19.4311365 49.6698763,19.3389042 49.6870599,19.2456367 C49.6894466,19.2321091 49.6917644,19.2185511 49.6940095,19.2049632 L48.2727676,19.2049632 C48.2626252,19.2368618 48.251553,19.2682996 48.2396662,19.2992622 C48.2319715,19.3191882 48.2238985,19.3389264 48.215456,19.358468 L49.2333436,20.3763555 Z M48.6045247,21.0666771 L47.6139147,20.0760671 C47.4898336,20.1580144 47.3538989,20.2234443 47.2091975,20.2692049 L47.2091975,21.6912156 C47.7320076,21.6053649 48.2091736,21.3848747 48.6045247,21.0666771 Z M44.2208512,20.4077826 L45.2347907,19.393843 C45.2300008,19.3834391 45.2253165,19.3729765 45.2207396,19.3624562 C45.2000295,19.3143191 45.1816142,19.2656782 45.1654938,19.2151902 C45.1643701,19.2117871 45.1632603,19.2083781 45.1621642,19.2049632 L43.7409073,19.2049632 C43.7503001,19.2608453 43.7611758,19.3162341 43.7734272,19.3710975 C43.7935092,19.4633298 43.8176283,19.5539058 43.8468196,19.6423081 C43.8766321,19.735679 43.9106887,19.825634 43.9489894,19.9146573 C44.0244456,20.0880957 44.1156682,20.2530784 44.2208512,20.4077826 Z M44.8580025,21.0897716 C45.2609215,21.4057731 45.7461605,21.6214407 46.2764243,21.6991322 L46.2764243,20.2842679 C46.1247756,20.2417366 45.9820856,20.1778262 45.8517799,20.0959943 L44.8580025,21.0897716 Z M49.0958001,16.851974 L48.1018102,17.8459639 C48.1838464,17.9767381 48.2478587,18.1199735 48.2903676,18.2721901 L49.704997,18.2721901 C49.6274749,17.7413687 49.4118696,17.2554212 49.0958001,16.851974 Z M48.4141101,16.2145237 C48.0592929,15.973145 47.6503378,15.8053992 47.2091975,15.7332432 L47.2091975,17.1551357 C47.2746422,17.1757529 47.3383063,17.2003812 47.3999015,17.2287322 L48.4141101,16.2145237 Z M13.6536876,16.8243285 C13.3256679,17.2331406 13.101873,17.7291868 13.0225719,18.2721901 L14.4372012,18.2721901 C14.4830039,18.1081793 14.5537712,17.9545954 14.6451508,17.8157917 L13.6536876,16.8243285 Z M14.3431081,16.1946086 L15.361936,17.2134365 C15.4284266,17.1846757 15.4972097,17.1602094 15.5679358,17.1403869 L15.5679358,15.7255592 C15.120158,15.7911685 14.7043514,15.9550505 14.3431081,16.1946086 Z M18.524855,20.3763555 C18.6441339,20.1960762 18.7446418,20.0022777 18.8236086,19.7977883 C18.8581828,19.7077298 18.8890304,19.6154975 18.9153234,19.5211949 C18.9404776,19.4311365 18.9613878,19.3389042 18.9785713,19.2456367 C18.9809581,19.2321091 18.9832759,19.2185511 18.985521,19.2049632 L17.5642791,19.2049632 C17.5541366,19.2368618 17.5430644,19.2682996 17.5311777,19.2992622 C17.5234829,19.3191882 17.51541,19.3389264 17.5069675,19.358468 L18.524855,20.3763555 Z M17.8960362,21.0666771 L16.9054262,20.0760671 C16.781345,20.1580144 16.6454104,20.2234443 16.5007089,20.2692049 L16.5007089,21.6912156 C17.023519,21.6053649 17.5006851,21.3848747 17.8960362,21.0666771 Z M13.5123626,20.4077826 L14.5263022,19.393843 C14.5215122,19.3834391 14.516828,19.3729765 14.5122511,19.3624562 C14.4915409,19.3143191 14.4731257,19.2656782 14.4570053,19.2151902 C14.4558816,19.2117871 14.4547718,19.2083781 14.4536756,19.2049632 L13.0324187,19.2049632 C13.0418116,19.2608453 13.0526873,19.3162341 13.0649386,19.3710975 C13.0850206,19.4633298 13.1091397,19.5539058 13.1383311,19.6423081 C13.1681436,19.735679 13.2022002,19.825634 13.2405009,19.9146573 C13.3159571,20.0880957 13.4071797,20.2530784 13.5123626,20.4077826 Z M14.149514,21.0897716 C14.552433,21.4057731 15.037672,21.6214407 15.5679358,21.6991322 L15.5679358,20.2842679 C15.4162871,20.2417366 15.273597,20.1778262 15.1432913,20.0959943 L14.149514,21.0897716 Z M18.3873115,16.851974 L17.3933217,17.8459639 C17.4753579,17.9767381 17.5393701,18.1199735 17.5818791,18.2721901 L18.9965084,18.2721901 C18.9189864,17.7413687 18.703381,17.2554212 18.3873115,16.851974 Z M17.7056216,16.2145237 C17.3508044,15.973145 16.9418493,15.8053992 16.5007089,15.7332432 L16.5007089,17.1551357 C16.5661537,17.1757529 16.6298178,17.2003812 16.691413,17.2287322 L17.7056216,16.2145237 Z M54.1833469,10.6610756 C54.2601004,11.6008235 54.3462068,12.6663165 54.5197558,12.938888 C54.8411704,13.4426106 55.297683,15.8148431 54.402176,17.5668123 C53.8787082,18.591479 52.9745906,19.2249552 51.7723665,19.4232969 C51.7907754,19.2864174 51.8045822,19.1473109 51.8123021,19.0074622 C51.8185373,18.9090336 51.8277418,18.8122381 51.8277418,18.7130672 C51.8277418,18.6737255 51.821655,18.6346807 51.821655,18.5962297 C51.7585598,15.8286499 49.4923273,13.5962661 46.7109407,13.5962661 C43.889767,13.5962661 41.594288,15.8917451 41.594288,18.7130672 C41.594288,18.8068936 41.6034925,18.8974538 41.6080948,18.9897955 C41.6149239,19.1219244 41.6250191,19.2525686 41.6426858,19.3832129 C41.6603525,19.5154902 41.6780191,19.6462829 41.705781,19.7754426 C35.4090247,19.9337003 27.278795,20.1143754 20.8894001,20.2512549 C20.9302264,20.1213529 20.9624421,19.9890756 20.9931732,19.8553137 C21.023162,19.7261541 21.0458763,19.5940252 21.0654729,19.4610056 C21.1012516,19.2157507 21.1261928,18.9682689 21.1261928,18.7130672 C21.1261928,15.8917451 18.8307138,13.5962661 16.0093917,13.5962661 C13.1880696,13.5962661 10.892739,15.8917451 10.892739,18.7130672 C10.892739,19.0420532 10.9264393,19.362577 10.9864169,19.6740448 C11.0113581,19.8063221 11.0437222,19.9354818 11.0790556,20.0637507 C11.1155766,20.1967703 11.1578875,20.3266723 11.2043553,20.4550896 C10.7500696,20.4644426 10.4878903,20.4688964 10.4583469,20.4705294 C10.478092,20.4705294 9.96947012,20.5397115 9.29145611,20.5397115 C7.16551774,20.5397115 5.90197992,19.8946555 5.63757376,18.675507 L5.62807236,18.5917759 L5.62807236,14.0008179 L5.71224883,13.8922941 C5.71224883,13.8930364 5.89411157,13.6269972 5.9744281,12.9765966 C6.07434127,12.1609608 6.70499673,11.4676555 7.09440569,11.176972 C7.2701816,10.5760084 8.20072502,9.02193557 13.0788035,8.06140336 C16.5180135,7.38531933 17.6431872,6.97364146 17.9994897,6.80142857 L18.2005037,6.61466667 C18.4815373,6.3510028 25.2989407,0.0903221289 33.9746102,0.262089636 C39.9330275,0.390507003 43.9066914,1.20688515 46.0415373,1.6449888 C46.8694953,1.81616246 47.4674897,1.93878992 47.7658931,1.93878992 C47.9096018,1.92602241 47.9741816,1.92231092 48.0349015,1.92231092 C48.4485093,1.92231092 48.6884197,2.10833053 48.8159463,2.26406443 C49.0904477,2.59780112 49.0989099,3.08207563 49.0419015,3.47638375 C49.19719,3.629 49.5616578,3.92487955 49.866148,4.17057983 C51.1022208,5.17178992 52.0661676,5.99039496 52.2959827,6.64851541 C52.3281984,6.74219328 52.353585,6.76683754 52.355218,6.76683754 C52.4344953,6.76535294 52.4828931,6.75882073 52.5312908,6.75421849 C52.6087866,6.74620168 52.6873217,6.73848179 52.7657082,6.73848179 C53.5482376,6.73848179 53.7796858,7.49740616 53.8849435,8.06734174 C54.0365205,8.88223529 54.1141648,9.82658543 54.1833469,10.6610756 Z M38.5050719,2.45548649 L39.7096665,9.63058521 C36.6710855,11.4539885 34.9970118,14.206108 34.7093621,17.8433869 C27.3643068,17.9867185 24.948466,18.0233618 23.0782556,18.0281304 C23.0033378,16.3499299 22.5204357,15.0564804 21.726248,14.0049686 C21.4512895,13.6409211 21.2485265,13.4252143 20.808736,12.9942606 C20.6348955,12.823913 20.5524421,12.7227528 20.5524421,12.8067227 L20.5524421,8.14285714 C20.5524421,7.88527896 20.3436337,7.67647059 20.0860556,7.67647059 C19.8284774,7.67647059 19.619669,7.88527896 19.619669,8.14285714 L19.619669,12.8067227 C19.619669,13.1735558 20.8113044,14.3412477 20.9819208,14.5671454 C21.7277504,15.5546305 22.1557266,16.7929481 22.1557266,18.4950883 L22.1557266,18.9614749 L22.6221132,18.9614749 C24.6245802,18.9614749 26.8454181,18.9302241 35.1567219,18.7675962 L35.592543,18.7590685 L35.6134477,18.3236655 C35.7887493,14.6724887 37.3928522,12.0081191 40.4526227,10.2771632 L40.7370327,10.1162684 L39.4249712,2.30104881 C39.3823244,2.04702564 39.1418259,1.87567122 38.8878027,1.91831801 C38.6337795,1.9609648 38.4624251,2.20146332 38.5050719,2.45548649 Z M40.8624328,2.1442577 C40.8624328,4.48661687 41.4892613,6.16915655 42.7429183,7.19187675 C45.8440699,7.19187675 48.186429,7.19187675 49.7699958,7.19187675 C52.1453459,7.19187675 49.7699958,5.2124183 48.4388795,4.49486461 C45.6177063,2.97407852 42.9161209,2.1442577 40.8624328,2.1442577 Z M30.8166811,1.8225957 C27.6441474,2.36132785 25.2645293,3.14322946 22.6266718,4.98972923 C21.3347097,5.89410248 19.7812003,7.19187675 21.3400238,7.19187675 C24.4329276,7.19187675 35.5921246,7.19187675 37.0024888,7.19187675 C37.9427316,7.19187675 37.992218,5.4021164 37.1509482,1.8225957 C35.5508859,1.37721755 33.4394636,1.37721755 30.8166811,1.8225957 Z M12.0382516,20.4366807 C11.9833217,20.3090056 11.9344785,20.1799944 11.8917222,20.046084 C11.8498567,19.9192997 11.8152656,19.7893978 11.7864645,19.6571204 C11.7184701,19.3526303 11.6800191,19.0368571 11.6800191,18.7124734 C11.6800191,16.3209412 13.6180079,14.3828039 16.0095401,14.3828039 C18.4010724,14.3828039 20.3390612,16.3209412 20.3390612,18.7124734 C20.3390612,18.9736134 20.3114477,19.2289636 20.2676522,19.4771877 C20.2430079,19.6109496 20.2130191,19.7432269 20.1769435,19.8723866 C20.1392348,20.0076331 20.0949939,20.1399104 20.0454085,20.26907 C19.4196522,21.8895042 17.8507334,23.0418459 16.0087978,23.0418459 C14.2306998,23.0418459 12.7051312,21.9695238 12.0382516,20.4366807 Z M42.7467402,20.4366807 C42.6918102,20.3090056 42.6429671,20.1799944 42.6002108,20.046084 C42.5583452,19.9192997 42.5237542,19.7893978 42.4949531,19.6571204 C42.4269587,19.3526303 42.3885077,19.0368571 42.3885077,18.7124734 C42.3885077,16.3209412 44.3264965,14.3828039 46.7180287,14.3828039 C49.1095609,14.3828039 51.0475497,16.3209412 51.0475497,18.7124734 C51.0475497,18.9736134 51.0199363,19.2289636 50.9761407,19.4771877 C50.9514965,19.6109496 50.9215077,19.7432269 50.885432,19.8723866 C50.8477234,20.0076331 50.8034825,20.1399104 50.753897,20.26907 C50.1281407,21.8895042 48.559222,23.0418459 46.7172864,23.0418459 C44.9391884,23.0418459 43.4136197,21.9695238 42.7467402,20.4366807 Z" id="path-1"></path>
    </defs>
    <g id="Symbols" stroke="none" stroke-width="1" fill-rule="evenodd">
        <g id="Car-Type-Icon/CarTypeIcon_Compact">
            <path fill="inherit" fill-rule="nonzero" transform="translate(30.276893, 11.650233) scale(-1, 1) translate(-30.276893, -11.650233)" d="M44.3621762,16.8243285 C44.0341564,17.2331406 43.8103615,17.7291868 43.7310604,18.2721901 L45.1456898,18.2721901 C45.1914924,18.1081793 45.2622598,17.9545954 45.3536394,17.8157917 L44.3621762,16.8243285 Z M45.0515966,16.1946086 L46.0704245,17.2134365 C46.1369151,17.1846757 46.2056982,17.1602094 46.2764243,17.1403869 L46.2764243,15.7255592 C45.8286465,15.7911685 45.41284,15.9550505 45.0515966,16.1946086 Z M49.2333436,20.3763555 C49.3526225,20.1960762 49.4531304,20.0022777 49.5320972,19.7977883 C49.5666714,19.7077298 49.597519,19.6154975 49.6238119,19.5211949 C49.6489662,19.4311365 49.6698763,19.3389042 49.6870599,19.2456367 C49.6894466,19.2321091 49.6917644,19.2185511 49.6940095,19.2049632 L48.2727676,19.2049632 C48.2626252,19.2368618 48.251553,19.2682996 48.2396662,19.2992622 C48.2319715,19.3191882 48.2238985,19.3389264 48.215456,19.358468 L49.2333436,20.3763555 Z M48.6045247,21.0666771 L47.6139147,20.0760671 C47.4898336,20.1580144 47.3538989,20.2234443 47.2091975,20.2692049 L47.2091975,21.6912156 C47.7320076,21.6053649 48.2091736,21.3848747 48.6045247,21.0666771 Z M44.2208512,20.4077826 L45.2347907,19.393843 C45.2300008,19.3834391 45.2253165,19.3729765 45.2207396,19.3624562 C45.2000295,19.3143191 45.1816142,19.2656782 45.1654938,19.2151902 C45.1643701,19.2117871 45.1632603,19.2083781 45.1621642,19.2049632 L43.7409073,19.2049632 C43.7503001,19.2608453 43.7611758,19.3162341 43.7734272,19.3710975 C43.7935092,19.4633298 43.8176283,19.5539058 43.8468196,19.6423081 C43.8766321,19.735679 43.9106887,19.825634 43.9489894,19.9146573 C44.0244456,20.0880957 44.1156682,20.2530784 44.2208512,20.4077826 Z M44.8580025,21.0897716 C45.2609215,21.4057731 45.7461605,21.6214407 46.2764243,21.6991322 L46.2764243,20.2842679 C46.1247756,20.2417366 45.9820856,20.1778262 45.8517799,20.0959943 L44.8580025,21.0897716 Z M49.0958001,16.851974 L48.1018102,17.8459639 C48.1838464,17.9767381 48.2478587,18.1199735 48.2903676,18.2721901 L49.704997,18.2721901 C49.6274749,17.7413687 49.4118696,17.2554212 49.0958001,16.851974 Z M48.4141101,16.2145237 C48.0592929,15.973145 47.6503378,15.8053992 47.2091975,15.7332432 L47.2091975,17.1551357 C47.2746422,17.1757529 47.3383063,17.2003812 47.3999015,17.2287322 L48.4141101,16.2145237 Z M13.6536876,16.8243285 C13.3256679,17.2331406 13.101873,17.7291868 13.0225719,18.2721901 L14.4372012,18.2721901 C14.4830039,18.1081793 14.5537712,17.9545954 14.6451508,17.8157917 L13.6536876,16.8243285 Z M14.3431081,16.1946086 L15.361936,17.2134365 C15.4284266,17.1846757 15.4972097,17.1602094 15.5679358,17.1403869 L15.5679358,15.7255592 C15.120158,15.7911685 14.7043514,15.9550505 14.3431081,16.1946086 Z M18.524855,20.3763555 C18.6441339,20.1960762 18.7446418,20.0022777 18.8236086,19.7977883 C18.8581828,19.7077298 18.8890304,19.6154975 18.9153234,19.5211949 C18.9404776,19.4311365 18.9613878,19.3389042 18.9785713,19.2456367 C18.9809581,19.2321091 18.9832759,19.2185511 18.985521,19.2049632 L17.5642791,19.2049632 C17.5541366,19.2368618 17.5430644,19.2682996 17.5311777,19.2992622 C17.5234829,19.3191882 17.51541,19.3389264 17.5069675,19.358468 L18.524855,20.3763555 Z M17.8960362,21.0666771 L16.9054262,20.0760671 C16.781345,20.1580144 16.6454104,20.2234443 16.5007089,20.2692049 L16.5007089,21.6912156 C17.023519,21.6053649 17.5006851,21.3848747 17.8960362,21.0666771 Z M13.5123626,20.4077826 L14.5263022,19.393843 C14.5215122,19.3834391 14.516828,19.3729765 14.5122511,19.3624562 C14.4915409,19.3143191 14.4731257,19.2656782 14.4570053,19.2151902 C14.4558816,19.2117871 14.4547718,19.2083781 14.4536756,19.2049632 L13.0324187,19.2049632 C13.0418116,19.2608453 13.0526873,19.3162341 13.0649386,19.3710975 C13.0850206,19.4633298 13.1091397,19.5539058 13.1383311,19.6423081 C13.1681436,19.735679 13.2022002,19.825634 13.2405009,19.9146573 C13.3159571,20.0880957 13.4071797,20.2530784 13.5123626,20.4077826 Z M14.149514,21.0897716 C14.552433,21.4057731 15.037672,21.6214407 15.5679358,21.6991322 L15.5679358,20.2842679 C15.4162871,20.2417366 15.273597,20.1778262 15.1432913,20.0959943 L14.149514,21.0897716 Z M18.3873115,16.851974 L17.3933217,17.8459639 C17.4753579,17.9767381 17.5393701,18.1199735 17.5818791,18.2721901 L18.9965084,18.2721901 C18.9189864,17.7413687 18.703381,17.2554212 18.3873115,16.851974 Z M17.7056216,16.2145237 C17.3508044,15.973145 16.9418493,15.8053992 16.5007089,15.7332432 L16.5007089,17.1551357 C16.5661537,17.1757529 16.6298178,17.2003812 16.691413,17.2287322 L17.7056216,16.2145237 Z M54.1833469,10.6610756 C54.2601004,11.6008235 54.3462068,12.6663165 54.5197558,12.938888 C54.8411704,13.4426106 55.297683,15.8148431 54.402176,17.5668123 C53.8787082,18.591479 52.9745906,19.2249552 51.7723665,19.4232969 C51.7907754,19.2864174 51.8045822,19.1473109 51.8123021,19.0074622 C51.8185373,18.9090336 51.8277418,18.8122381 51.8277418,18.7130672 C51.8277418,18.6737255 51.821655,18.6346807 51.821655,18.5962297 C51.7585598,15.8286499 49.4923273,13.5962661 46.7109407,13.5962661 C43.889767,13.5962661 41.594288,15.8917451 41.594288,18.7130672 C41.594288,18.8068936 41.6034925,18.8974538 41.6080948,18.9897955 C41.6149239,19.1219244 41.6250191,19.2525686 41.6426858,19.3832129 C41.6603525,19.5154902 41.6780191,19.6462829 41.705781,19.7754426 C35.4090247,19.9337003 27.278795,20.1143754 20.8894001,20.2512549 C20.9302264,20.1213529 20.9624421,19.9890756 20.9931732,19.8553137 C21.023162,19.7261541 21.0458763,19.5940252 21.0654729,19.4610056 C21.1012516,19.2157507 21.1261928,18.9682689 21.1261928,18.7130672 C21.1261928,15.8917451 18.8307138,13.5962661 16.0093917,13.5962661 C13.1880696,13.5962661 10.892739,15.8917451 10.892739,18.7130672 C10.892739,19.0420532 10.9264393,19.362577 10.9864169,19.6740448 C11.0113581,19.8063221 11.0437222,19.9354818 11.0790556,20.0637507 C11.1155766,20.1967703 11.1578875,20.3266723 11.2043553,20.4550896 C10.7500696,20.4644426 10.4878903,20.4688964 10.4583469,20.4705294 C10.478092,20.4705294 9.96947012,20.5397115 9.29145611,20.5397115 C7.16551774,20.5397115 5.90197992,19.8946555 5.63757376,18.675507 L5.62807236,18.5917759 L5.62807236,14.0008179 L5.71224883,13.8922941 C5.71224883,13.8930364 5.89411157,13.6269972 5.9744281,12.9765966 C6.07434127,12.1609608 6.70499673,11.4676555 7.09440569,11.176972 C7.2701816,10.5760084 8.20072502,9.02193557 13.0788035,8.06140336 C16.5180135,7.38531933 17.6431872,6.97364146 17.9994897,6.80142857 L18.2005037,6.61466667 C18.4815373,6.3510028 25.2989407,0.0903221289 33.9746102,0.262089636 C39.9330275,0.390507003 43.9066914,1.20688515 46.0415373,1.6449888 C46.8694953,1.81616246 47.4674897,1.93878992 47.7658931,1.93878992 C47.9096018,1.92602241 47.9741816,1.92231092 48.0349015,1.92231092 C48.4485093,1.92231092 48.6884197,2.10833053 48.8159463,2.26406443 C49.0904477,2.59780112 49.0989099,3.08207563 49.0419015,3.47638375 C49.19719,3.629 49.5616578,3.92487955 49.866148,4.17057983 C51.1022208,5.17178992 52.0661676,5.99039496 52.2959827,6.64851541 C52.3281984,6.74219328 52.353585,6.76683754 52.355218,6.76683754 C52.4344953,6.76535294 52.4828931,6.75882073 52.5312908,6.75421849 C52.6087866,6.74620168 52.6873217,6.73848179 52.7657082,6.73848179 C53.5482376,6.73848179 53.7796858,7.49740616 53.8849435,8.06734174 C54.0365205,8.88223529 54.1141648,9.82658543 54.1833469,10.6610756 Z M38.5050719,2.45548649 L39.7096665,9.63058521 C36.6710855,11.4539885 34.9970118,14.206108 34.7093621,17.8433869 C27.3643068,17.9867185 24.948466,18.0233618 23.0782556,18.0281304 C23.0033378,16.3499299 22.5204357,15.0564804 21.726248,14.0049686 C21.4512895,13.6409211 21.2485265,13.4252143 20.808736,12.9942606 C20.6348955,12.823913 20.5524421,12.7227528 20.5524421,12.8067227 L20.5524421,8.14285714 C20.5524421,7.88527896 20.3436337,7.67647059 20.0860556,7.67647059 C19.8284774,7.67647059 19.619669,7.88527896 19.619669,8.14285714 L19.619669,12.8067227 C19.619669,13.1735558 20.8113044,14.3412477 20.9819208,14.5671454 C21.7277504,15.5546305 22.1557266,16.7929481 22.1557266,18.4950883 L22.1557266,18.9614749 L22.6221132,18.9614749 C24.6245802,18.9614749 26.8454181,18.9302241 35.1567219,18.7675962 L35.592543,18.7590685 L35.6134477,18.3236655 C35.7887493,14.6724887 37.3928522,12.0081191 40.4526227,10.2771632 L40.7370327,10.1162684 L39.4249712,2.30104881 C39.3823244,2.04702564 39.1418259,1.87567122 38.8878027,1.91831801 C38.6337795,1.9609648 38.4624251,2.20146332 38.5050719,2.45548649 Z M40.8624328,2.1442577 C40.8624328,4.48661687 41.4892613,6.16915655 42.7429183,7.19187675 C45.8440699,7.19187675 48.186429,7.19187675 49.7699958,7.19187675 C52.1453459,7.19187675 49.7699958,5.2124183 48.4388795,4.49486461 C45.6177063,2.97407852 42.9161209,2.1442577 40.8624328,2.1442577 Z M30.8166811,1.8225957 C27.6441474,2.36132785 25.2645293,3.14322946 22.6266718,4.98972923 C21.3347097,5.89410248 19.7812003,7.19187675 21.3400238,7.19187675 C24.4329276,7.19187675 35.5921246,7.19187675 37.0024888,7.19187675 C37.9427316,7.19187675 37.992218,5.4021164 37.1509482,1.8225957 C35.5508859,1.37721755 33.4394636,1.37721755 30.8166811,1.8225957 Z M12.0382516,20.4366807 C11.9833217,20.3090056 11.9344785,20.1799944 11.8917222,20.046084 C11.8498567,19.9192997 11.8152656,19.7893978 11.7864645,19.6571204 C11.7184701,19.3526303 11.6800191,19.0368571 11.6800191,18.7124734 C11.6800191,16.3209412 13.6180079,14.3828039 16.0095401,14.3828039 C18.4010724,14.3828039 20.3390612,16.3209412 20.3390612,18.7124734 C20.3390612,18.9736134 20.3114477,19.2289636 20.2676522,19.4771877 C20.2430079,19.6109496 20.2130191,19.7432269 20.1769435,19.8723866 C20.1392348,20.0076331 20.0949939,20.1399104 20.0454085,20.26907 C19.4196522,21.8895042 17.8507334,23.0418459 16.0087978,23.0418459 C14.2306998,23.0418459 12.7051312,21.9695238 12.0382516,20.4366807 Z M42.7467402,20.4366807 C42.6918102,20.3090056 42.6429671,20.1799944 42.6002108,20.046084 C42.5583452,19.9192997 42.5237542,19.7893978 42.4949531,19.6571204 C42.4269587,19.3526303 42.3885077,19.0368571 42.3885077,18.7124734 C42.3885077,16.3209412 44.3264965,14.3828039 46.7180287,14.3828039 C49.1095609,14.3828039 51.0475497,16.3209412 51.0475497,18.7124734 C51.0475497,18.9736134 51.0199363,19.2289636 50.9761407,19.4771877 C50.9514965,19.6109496 50.9215077,19.7432269 50.885432,19.8723866 C50.8477234,20.0076331 50.8034825,20.1399104 50.753897,20.26907 C50.1281407,21.8895042 48.559222,23.0418459 46.7172864,23.0418459 C44.9391884,23.0418459 43.4136197,21.9695238 42.7467402,20.4366807 Z" id="path-1"></path>
        </g>
    </g>
</svg>