<svg xmlns="http://www.w3.org/2000/svg" viewBox="-17378 -16714 40 40">
  <g id="ic_settings_general" transform="translate(-17418 -17093)">
    <rect id="Rectangle_1375" data-name="Rectangle 1375" fill="none" opacity="0.58" width="40" height="40" transform="translate(40 379)"/>
    <g id="Subtraction_16" data-name="Subtraction 16" fill="none" transform="translate(-23530.004 -13620.998)">
      <path stroke="none" d="M23592.676,14038h-5.254l-.895-5.267a12.994,12.994,0,0,1-3.064-1.266l-4.3,3.143-3.709-3.711,3.084-4.35a13.177,13.177,0,0,1-1.271-3.065l-5.26-.815v-5.247l5.26-.9a13.021,13.021,0,0,1,1.264-3.063l-3.141-4.3,3.711-3.718,4.352,3.093a12.989,12.989,0,0,1,3.07-1.272l.816-5.268h5.25l.891,5.268a13.306,13.306,0,0,1,3.07,1.265l4.3-3.141,3.713,3.709-3.09,4.351a13.121,13.121,0,0,1,1.271,3.063l5.264.818v5.253l-5.264.895a13.135,13.135,0,0,1-1.271,3.064l3.145,4.3-3.709,3.71-4.357-3.091a13.178,13.178,0,0,1-3.057,1.272l-.814,5.266Zm-2.672-24a6,6,0,1,0,6,6A6.008,6.008,0,0,0,23590,14014Z"/>
      <path fill="#0081BA" stroke="none" d="M 23590.962890625 14035.9990234375 L 23591.515625 14032.4267578125 L 23591.712890625 14031.1474609375 L 23592.9609375 14030.8046875 C 23593.869140625 14030.5537109375 23594.7421875 14030.19140625 23595.552734375 14029.7255859375 L 23596.662109375 14029.0888671875 L 23597.705078125 14029.8291015625 L 23600.685546875 14031.9423828125 L 23601.990234375 14030.638671875 L 23599.85546875 14027.7216796875 L 23599.08984375 14026.673828125 L 23599.734375 14025.5478515625 C 23600.203125 14024.7294921875 23600.56640625 14023.85546875 23600.8125 14022.9501953125 L 23601.1484375 14021.71875 L 23602.40625 14021.5048828125 L 23606.005859375 14020.8935546875 L 23606.005859375 14019.0419921875 L 23602.435546875 14018.4873046875 L 23601.154296875 14018.2880859375 L 23600.8125 14017.037109375 C 23600.56640625 14016.1337890625 23600.203125 14015.2607421875 23599.734375 14014.44140625 L 23599.099609375 14013.33203125 L 23599.83984375 14012.2900390625 L 23601.951171875 14009.3173828125 L 23600.64453125 14008.013671875 L 23597.728515625 14010.14453125 L 23596.689453125 14010.9033203125 L 23595.568359375 14010.2724609375 C 23594.720703125 14009.7958984375 23593.84375 14009.43359375 23592.958984375 14009.1962890625 L 23591.720703125 14008.86328125 L 23591.505859375 14007.59765625 L 23590.8984375 14003.9970703125 L 23589.052734375 14003.9970703125 L 23588.498046875 14007.5712890625 L 23588.298828125 14008.857421875 L 23587.041015625 14009.1953125 C 23586.14453125 14009.4375 23585.26953125 14009.7998046875 23584.4453125 14010.2724609375 L 23583.3359375 14010.908203125 L 23582.29296875 14010.1669921875 L 23579.3203125 14008.0546875 L 23578.013671875 14009.3642578125 L 23580.14453125 14012.2822265625 L 23580.908203125 14013.328125 L 23580.267578125 14014.453125 C 23579.798828125 14015.2724609375 23579.439453125 14016.14453125 23579.197265625 14017.044921875 L 23578.86328125 14018.2822265625 L 23577.6015625 14018.4970703125 L 23574.005859375 14019.109375 L 23574.005859375 14020.9541015625 L 23577.572265625 14021.5068359375 L 23578.849609375 14021.705078125 L 23579.193359375 14022.9521484375 C 23579.44921875 14023.876953125 23579.810546875 14024.7509765625 23580.271484375 14025.552734375 L 23580.908203125 14026.662109375 L 23580.16796875 14027.7060546875 L 23578.060546875 14030.6787109375 L 23579.365234375 14031.9833984375 L 23582.283203125 14029.8515625 L 23583.33203125 14029.0859375 L 23584.458984375 14029.732421875 C 23585.263671875 14030.193359375 23586.134765625 14030.5537109375 23587.05078125 14030.8017578125 L 23588.28515625 14031.13671875 L 23588.5 14032.3974609375 L 23589.111328125 14035.9990234375 L 23590.962890625 14035.9990234375 M 23590.00390625 14012.001953125 C 23594.416015625 14012.001953125 23598.00390625 14015.5908203125 23598.00390625 14020.001953125 C 23598.00390625 14024.4130859375 23594.416015625 14028.001953125 23590.00390625 14028.001953125 C 23585.591796875 14028.001953125 23582.001953125 14024.4130859375 23582.001953125 14020.001953125 C 23582.001953125 14015.5908203125 23585.591796875 14012.001953125 23590.00390625 14012.001953125 M 23592.67578125 14037.9990234375 L 23587.421875 14037.9990234375 L 23586.52734375 14032.732421875 C 23585.447265625 14032.439453125 23584.416015625 14032.013671875 23583.462890625 14031.466796875 L 23579.162109375 14034.609375 L 23575.453125 14030.8984375 L 23578.537109375 14026.548828125 C 23577.9921875 14025.6005859375 23577.564453125 14024.568359375 23577.265625 14023.4833984375 L 23572.005859375 14022.66796875 L 23572.005859375 14017.4208984375 L 23577.265625 14016.525390625 C 23577.5546875 14015.451171875 23577.982421875 14014.4208984375 23578.529296875 14013.4619140625 L 23575.388671875 14009.162109375 L 23579.099609375 14005.4443359375 L 23583.451171875 14008.537109375 C 23584.431640625 14007.9755859375 23585.466796875 14007.548828125 23586.521484375 14007.2646484375 L 23587.337890625 14001.9970703125 L 23592.587890625 14001.9970703125 L 23593.478515625 14007.2646484375 C 23594.525390625 14007.5458984375 23595.556640625 14007.970703125 23596.548828125 14008.529296875 L 23600.84765625 14005.388671875 L 23604.560546875 14009.09765625 L 23601.470703125 14013.4482421875 C 23602.02734375 14014.4208984375 23602.453125 14015.451171875 23602.7421875 14016.5107421875 L 23608.005859375 14017.3291015625 L 23608.005859375 14022.58203125 L 23602.7421875 14023.4765625 C 23602.453125 14024.5361328125 23602.02734375 14025.568359375 23601.470703125 14026.541015625 L 23604.615234375 14030.8408203125 L 23600.90625 14034.55078125 L 23596.548828125 14031.4599609375 C 23595.59375 14032.0078125 23594.56640625 14032.4365234375 23593.4921875 14032.732421875 L 23592.677734375 14037.998046875 L 23592.67578125 14037.9990234375 Z M 23590.00390625 14014.001953125 C 23586.6953125 14014.001953125 23584.001953125 14016.693359375 23584.001953125 14020.001953125 C 23584.001953125 14023.3095703125 23586.6953125 14026.001953125 23590.00390625 14026.001953125 C 23593.3125 14026.001953125 23596.00390625 14023.3095703125 23596.00390625 14020.001953125 C 23596.00390625 14016.693359375 23593.3125 14014.001953125 23590.00390625 14014.001953125 Z"/>
    </g>
  </g>
</svg>
