<svg xmlns="http://www.w3.org/2000/svg" viewBox="-17378 -16807 40 40">
  <g id="ic_setings_nest" transform="translate(-17612.682 -17567)">
    <rect id="_bounds" fill="none" width="40" height="40" transform="translate(234.682 760)"/>
    <path id="Path_680" data-name="Path 680" fill="none" stroke="#0081BA" stroke-miterlimit="10" stroke-width="2" d="M6.5,18.726,23.726,3.3l7.245,6.392,10.238,9.034h-.977a1.372,1.372,0,0,0-1.363,1.363V35.129a1.372,1.372,0,0,1-1.363,1.363H28.1V24.2a1.372,1.372,0,0,0-1.363-1.363H20.461A1.372,1.372,0,0,0,19.1,24.2v12.29H10.177a1.372,1.372,0,0,1-1.363-1.363V20.089a1.372,1.372,0,0,0-1.363-1.363Z" transform="translate(230.817 760.301)"/>
  </g>
</svg>
