<svg xmlns="http://www.w3.org/2000/svg" width="29" height="30" viewBox="0 0 29 30">
    <g fill="none" fill-rule="evenodd" stroke="#000" stroke-linejoin="round">
        <path d="M12.917 18.125s-1.563-.52-1.563-3.125c-.86 0-.86-2.083 0-2.083 0-.35-1.562-4.167 1.042-3.646.52-2.084 6.25-2.084 6.77 0 .362 1.446-.52 3.39-.52 3.646.86 0 .86 2.083 0 2.083 0 2.604-1.563 3.125-1.563 3.125v2.604c2.58.968 5.136 1.768 6.444 2.682A11.941 11.941 0 0 0 26.98 15C26.98 8.383 21.617 3.02 15 3.02 8.383 3.02 3.02 8.384 3.02 15c0 3.284 1.324 6.26 3.464 8.424 1.386-.958 4.117-1.819 6.433-2.695v-2.604z"/>
        <path d="M6.485 23.424A11.942 11.942 0 0 0 15 26.979c3.337 0 6.353-1.365 8.526-3.568"/>
    </g>
</svg>
